<mxfile host="65bd71144e">
    <diagram id="C5RBs43oDa-KdzZeNtuy" name="Page-1">
        <mxGraphModel dx="309" dy="469" grid="1" gridSize="10" guides="1" tooltips="1" connect="1" arrows="1" fold="1" page="1" pageScale="1" pageWidth="827" pageHeight="1169" math="0" shadow="0">
            <root>
                <mxCell id="WIyWlLk6GJQsqaUBKTNV-0"/>
                <mxCell id="WIyWlLk6GJQsqaUBKTNV-1" parent="WIyWlLk6GJQsqaUBKTNV-0"/>
                <mxCell id="WIyWlLk6GJQsqaUBKTNV-2" value="" style="rounded=0;html=1;jettySize=auto;orthogonalLoop=1;fontSize=11;endArrow=block;endFill=0;endSize=8;strokeWidth=1;shadow=0;labelBackgroundColor=none;edgeStyle=orthogonalEdgeStyle;" parent="WIyWlLk6GJQsqaUBKTNV-1" source="WIyWlLk6GJQsqaUBKTNV-3" target="m8vF6hnPU6TzK2Q3ROPj-0" edge="1">
                    <mxGeometry relative="1" as="geometry"/>
                </mxCell>
                <mxCell id="WIyWlLk6GJQsqaUBKTNV-3" value="ゲーム開始ページに遷移" style="rounded=1;whiteSpace=wrap;html=1;fontSize=12;glass=0;strokeWidth=1;shadow=0;" parent="WIyWlLk6GJQsqaUBKTNV-1" vertex="1">
                    <mxGeometry x="105" width="230" height="40" as="geometry"/>
                </mxCell>
                <mxCell id="WIyWlLk6GJQsqaUBKTNV-4" value="Yes" style="rounded=0;html=1;jettySize=auto;orthogonalLoop=1;fontSize=11;endArrow=block;endFill=0;endSize=8;strokeWidth=1;shadow=0;labelBackgroundColor=none;edgeStyle=orthogonalEdgeStyle;" parent="WIyWlLk6GJQsqaUBKTNV-1" source="WIyWlLk6GJQsqaUBKTNV-6" target="WIyWlLk6GJQsqaUBKTNV-10" edge="1">
                    <mxGeometry y="20" relative="1" as="geometry">
                        <mxPoint as="offset"/>
                    </mxGeometry>
                </mxCell>
                <mxCell id="WIyWlLk6GJQsqaUBKTNV-5" value="No" style="edgeStyle=orthogonalEdgeStyle;rounded=0;html=1;jettySize=auto;orthogonalLoop=1;fontSize=11;endArrow=block;endFill=0;endSize=8;strokeWidth=1;shadow=0;labelBackgroundColor=none;" parent="WIyWlLk6GJQsqaUBKTNV-1" source="WIyWlLk6GJQsqaUBKTNV-6" target="WIyWlLk6GJQsqaUBKTNV-7" edge="1">
                    <mxGeometry y="10" relative="1" as="geometry">
                        <mxPoint as="offset"/>
                    </mxGeometry>
                </mxCell>
                <mxCell id="WIyWlLk6GJQsqaUBKTNV-6" value="Lamp&lt;br&gt;plugged in?" style="rhombus;whiteSpace=wrap;html=1;shadow=0;fontFamily=Helvetica;fontSize=12;align=center;strokeWidth=1;spacing=6;spacingTop=-4;" parent="WIyWlLk6GJQsqaUBKTNV-1" vertex="1">
                    <mxGeometry x="790" y="50" width="100" height="80" as="geometry"/>
                </mxCell>
                <mxCell id="WIyWlLk6GJQsqaUBKTNV-7" value="Plug in lamp" style="rounded=1;whiteSpace=wrap;html=1;fontSize=12;glass=0;strokeWidth=1;shadow=0;" parent="WIyWlLk6GJQsqaUBKTNV-1" vertex="1">
                    <mxGeometry x="940" y="70" width="120" height="40" as="geometry"/>
                </mxCell>
                <mxCell id="WIyWlLk6GJQsqaUBKTNV-8" value="No" style="rounded=0;html=1;jettySize=auto;orthogonalLoop=1;fontSize=11;endArrow=block;endFill=0;endSize=8;strokeWidth=1;shadow=0;labelBackgroundColor=none;edgeStyle=orthogonalEdgeStyle;" parent="WIyWlLk6GJQsqaUBKTNV-1" source="WIyWlLk6GJQsqaUBKTNV-10" target="WIyWlLk6GJQsqaUBKTNV-11" edge="1">
                    <mxGeometry x="0.3333" y="20" relative="1" as="geometry">
                        <mxPoint as="offset"/>
                    </mxGeometry>
                </mxCell>
                <mxCell id="WIyWlLk6GJQsqaUBKTNV-9" value="Yes" style="edgeStyle=orthogonalEdgeStyle;rounded=0;html=1;jettySize=auto;orthogonalLoop=1;fontSize=11;endArrow=block;endFill=0;endSize=8;strokeWidth=1;shadow=0;labelBackgroundColor=none;" parent="WIyWlLk6GJQsqaUBKTNV-1" source="WIyWlLk6GJQsqaUBKTNV-10" target="WIyWlLk6GJQsqaUBKTNV-12" edge="1">
                    <mxGeometry y="10" relative="1" as="geometry">
                        <mxPoint as="offset"/>
                    </mxGeometry>
                </mxCell>
                <mxCell id="WIyWlLk6GJQsqaUBKTNV-10" value="Bulb&lt;br&gt;burned out?" style="rhombus;whiteSpace=wrap;html=1;shadow=0;fontFamily=Helvetica;fontSize=12;align=center;strokeWidth=1;spacing=6;spacingTop=-4;" parent="WIyWlLk6GJQsqaUBKTNV-1" vertex="1">
                    <mxGeometry x="790" y="170" width="100" height="80" as="geometry"/>
                </mxCell>
                <mxCell id="WIyWlLk6GJQsqaUBKTNV-11" value="Repair Lamp" style="rounded=1;whiteSpace=wrap;html=1;fontSize=12;glass=0;strokeWidth=1;shadow=0;" parent="WIyWlLk6GJQsqaUBKTNV-1" vertex="1">
                    <mxGeometry x="780" y="310" width="120" height="40" as="geometry"/>
                </mxCell>
                <mxCell id="WIyWlLk6GJQsqaUBKTNV-12" value="Replace Bulb" style="rounded=1;whiteSpace=wrap;html=1;fontSize=12;glass=0;strokeWidth=1;shadow=0;" parent="WIyWlLk6GJQsqaUBKTNV-1" vertex="1">
                    <mxGeometry x="940" y="190" width="120" height="40" as="geometry"/>
                </mxCell>
                <mxCell id="m8vF6hnPU6TzK2Q3ROPj-0" value="startボタンを押下" style="rounded=1;whiteSpace=wrap;html=1;fontSize=12;glass=0;strokeWidth=1;shadow=0;" parent="WIyWlLk6GJQsqaUBKTNV-1" vertex="1">
                    <mxGeometry x="105" y="80" width="230" height="40" as="geometry"/>
                </mxCell>
                <mxCell id="m8vF6hnPU6TzK2Q3ROPj-1" value="" style="rounded=0;html=1;jettySize=auto;orthogonalLoop=1;fontSize=11;endArrow=block;endFill=0;endSize=8;strokeWidth=1;shadow=0;labelBackgroundColor=none;edgeStyle=orthogonalEdgeStyle;" parent="WIyWlLk6GJQsqaUBKTNV-1" target="m8vF6hnPU6TzK2Q3ROPj-2" edge="1">
                    <mxGeometry relative="1" as="geometry">
                        <mxPoint x="220" y="120" as="sourcePoint"/>
                    </mxGeometry>
                </mxCell>
                <mxCell id="m8vF6hnPU6TzK2Q3ROPj-2" value="canvasにゲームが描画される" style="rounded=1;whiteSpace=wrap;html=1;fontSize=12;glass=0;strokeWidth=1;shadow=0;" parent="WIyWlLk6GJQsqaUBKTNV-1" vertex="1">
                    <mxGeometry x="105" y="160" width="230" height="40" as="geometry"/>
                </mxCell>
                <mxCell id="m8vF6hnPU6TzK2Q3ROPj-3" value="" style="rounded=0;html=1;jettySize=auto;orthogonalLoop=1;fontSize=11;endArrow=block;endFill=0;endSize=8;strokeWidth=1;shadow=0;labelBackgroundColor=none;edgeStyle=orthogonalEdgeStyle;" parent="WIyWlLk6GJQsqaUBKTNV-1" source="m8vF6hnPU6TzK2Q3ROPj-4" target="m8vF6hnPU6TzK2Q3ROPj-5" edge="1">
                    <mxGeometry relative="1" as="geometry"/>
                </mxCell>
                <mxCell id="m8vF6hnPU6TzK2Q3ROPj-4" value="コースをJSONからロード" style="rounded=1;whiteSpace=wrap;html=1;fontSize=12;glass=0;strokeWidth=1;shadow=0;" parent="WIyWlLk6GJQsqaUBKTNV-1" vertex="1">
                    <mxGeometry x="400" width="230" height="40" as="geometry"/>
                </mxCell>
                <mxCell id="m8vF6hnPU6TzK2Q3ROPj-5" value="画面の中央にコースのスタートをセット" style="rounded=1;whiteSpace=wrap;html=1;fontSize=12;glass=0;strokeWidth=1;shadow=0;" parent="WIyWlLk6GJQsqaUBKTNV-1" vertex="1">
                    <mxGeometry x="400" y="80" width="230" height="40" as="geometry"/>
                </mxCell>
                <mxCell id="m8vF6hnPU6TzK2Q3ROPj-6" value="" style="rounded=0;html=1;jettySize=auto;orthogonalLoop=1;fontSize=11;endArrow=block;endFill=0;endSize=8;strokeWidth=1;shadow=0;labelBackgroundColor=none;edgeStyle=orthogonalEdgeStyle;" parent="WIyWlLk6GJQsqaUBKTNV-1" target="m8vF6hnPU6TzK2Q3ROPj-7" edge="1">
                    <mxGeometry relative="1" as="geometry">
                        <mxPoint x="515" y="120" as="sourcePoint"/>
                    </mxGeometry>
                </mxCell>
                <mxCell id="m8vF6hnPU6TzK2Q3ROPj-7" value="スタートラインにカートを設置" style="rounded=1;whiteSpace=wrap;html=1;fontSize=12;glass=0;strokeWidth=1;shadow=0;" parent="WIyWlLk6GJQsqaUBKTNV-1" vertex="1">
                    <mxGeometry x="400" y="160" width="230" height="40" as="geometry"/>
                </mxCell>
                <mxCell id="m8vF6hnPU6TzK2Q3ROPj-8" value="" style="rounded=0;html=1;jettySize=auto;orthogonalLoop=1;fontSize=11;endArrow=block;endFill=0;endSize=8;strokeWidth=1;shadow=0;labelBackgroundColor=none;edgeStyle=orthogonalEdgeStyle;" parent="WIyWlLk6GJQsqaUBKTNV-1" target="m8vF6hnPU6TzK2Q3ROPj-9" edge="1">
                    <mxGeometry relative="1" as="geometry">
                        <mxPoint x="515" y="200" as="sourcePoint"/>
                    </mxGeometry>
                </mxCell>
                <mxCell id="m8vF6hnPU6TzK2Q3ROPj-9" value="カメラをメインカートの場所に設置" style="rounded=1;whiteSpace=wrap;html=1;fontSize=12;glass=0;strokeWidth=1;shadow=0;" parent="WIyWlLk6GJQsqaUBKTNV-1" vertex="1">
                    <mxGeometry x="400" y="240" width="230" height="40" as="geometry"/>
                </mxCell>
            </root>
        </mxGraphModel>
    </diagram>
    <diagram id="ZvK7xFtv1i9OsEIW9eTb" name="canvas">
        <mxGraphModel dx="309" dy="469" grid="1" gridSize="10" guides="1" tooltips="1" connect="1" arrows="1" fold="1" page="1" pageScale="1" pageWidth="850" pageHeight="1100" math="0" shadow="0">
            <root>
                <mxCell id="0"/>
                <mxCell id="1" parent="0"/>
                <mxCell id="XR_GTFBUSeVbghSvhBvB-2" value="" style="rounded=0;html=1;jettySize=auto;orthogonalLoop=1;fontSize=11;endArrow=block;endFill=0;endSize=8;strokeWidth=1;shadow=0;labelBackgroundColor=none;edgeStyle=orthogonalEdgeStyle;" parent="1" source="XR_GTFBUSeVbghSvhBvB-3" target="XR_GTFBUSeVbghSvhBvB-4" edge="1">
                    <mxGeometry relative="1" as="geometry"/>
                </mxCell>
                <mxCell id="XR_GTFBUSeVbghSvhBvB-3" value="オブジェクトの頂点にキャンバス比率をかける" style="rounded=1;whiteSpace=wrap;html=1;fontSize=12;glass=0;strokeWidth=1;shadow=0;" parent="1" vertex="1">
                    <mxGeometry x="80" y="50" width="280" height="40" as="geometry"/>
                </mxCell>
                <mxCell id="XR_GTFBUSeVbghSvhBvB-4" value="オブジェクトの位置にキャンバス比率をかける" style="rounded=1;whiteSpace=wrap;html=1;fontSize=12;glass=0;strokeWidth=1;shadow=0;" parent="1" vertex="1">
                    <mxGeometry x="80" y="130" width="280" height="40" as="geometry"/>
                </mxCell>
                <mxCell id="XR_GTFBUSeVbghSvhBvB-5" value="" style="rounded=0;html=1;jettySize=auto;orthogonalLoop=1;fontSize=11;endArrow=block;endFill=0;endSize=8;strokeWidth=1;shadow=0;labelBackgroundColor=none;edgeStyle=orthogonalEdgeStyle;" parent="1" target="XR_GTFBUSeVbghSvhBvB-6" edge="1">
                    <mxGeometry relative="1" as="geometry">
                        <mxPoint x="220" y="170" as="sourcePoint"/>
                    </mxGeometry>
                </mxCell>
                <mxCell id="XR_GTFBUSeVbghSvhBvB-6" value="オブジェクトの頂点にカメラ比率をかける" style="rounded=1;whiteSpace=wrap;html=1;fontSize=12;glass=0;strokeWidth=1;shadow=0;" parent="1" vertex="1">
                    <mxGeometry x="80" y="210" width="280" height="40" as="geometry"/>
                </mxCell>
                <mxCell id="XR_GTFBUSeVbghSvhBvB-7" value="" style="rounded=0;html=1;jettySize=auto;orthogonalLoop=1;fontSize=11;endArrow=block;endFill=0;endSize=8;strokeWidth=1;shadow=0;labelBackgroundColor=none;edgeStyle=orthogonalEdgeStyle;" parent="1" target="XR_GTFBUSeVbghSvhBvB-8" edge="1">
                    <mxGeometry relative="1" as="geometry">
                        <mxPoint x="220" y="250" as="sourcePoint"/>
                    </mxGeometry>
                </mxCell>
                <mxCell id="XR_GTFBUSeVbghSvhBvB-8" value="オブジェクトの位置にカメラ比率をかける" style="rounded=1;whiteSpace=wrap;html=1;fontSize=12;glass=0;strokeWidth=1;shadow=0;" parent="1" vertex="1">
                    <mxGeometry x="80" y="290" width="280" height="40" as="geometry"/>
                </mxCell>
                <mxCell id="XR_GTFBUSeVbghSvhBvB-9" value="&lt;font style=&quot;font-size: 18px;&quot;&gt;描画前&lt;/font&gt;" style="text;html=1;align=center;verticalAlign=middle;resizable=0;points=[];autosize=1;strokeColor=none;fillColor=none;" parent="1" vertex="1">
                    <mxGeometry x="180" width="80" height="40" as="geometry"/>
                </mxCell>
                <mxCell id="XR_GTFBUSeVbghSvhBvB-10" value="" style="rounded=0;html=1;jettySize=auto;orthogonalLoop=1;fontSize=11;endArrow=block;endFill=0;endSize=8;strokeWidth=1;shadow=0;labelBackgroundColor=none;edgeStyle=orthogonalEdgeStyle;" parent="1" source="XR_GTFBUSeVbghSvhBvB-11" target="XR_GTFBUSeVbghSvhBvB-12" edge="1">
                    <mxGeometry relative="1" as="geometry"/>
                </mxCell>
                <mxCell id="XR_GTFBUSeVbghSvhBvB-11" value="カートの位置をカメラに反映" style="rounded=1;whiteSpace=wrap;html=1;fontSize=12;glass=0;strokeWidth=1;shadow=0;" parent="1" vertex="1">
                    <mxGeometry x="440" y="50" width="280" height="40" as="geometry"/>
                </mxCell>
                <mxCell id="XR_GTFBUSeVbghSvhBvB-12" value="オブジェクトの位置にカメラの位置を引く" style="rounded=1;whiteSpace=wrap;html=1;fontSize=12;glass=0;strokeWidth=1;shadow=0;" parent="1" vertex="1">
                    <mxGeometry x="440" y="130" width="280" height="40" as="geometry"/>
                </mxCell>
                <mxCell id="XR_GTFBUSeVbghSvhBvB-13" value="" style="rounded=0;html=1;jettySize=auto;orthogonalLoop=1;fontSize=11;endArrow=block;endFill=0;endSize=8;strokeWidth=1;shadow=0;labelBackgroundColor=none;edgeStyle=orthogonalEdgeStyle;" parent="1" target="XR_GTFBUSeVbghSvhBvB-14" edge="1">
                    <mxGeometry relative="1" as="geometry">
                        <mxPoint x="580" y="170" as="sourcePoint"/>
                    </mxGeometry>
                </mxCell>
                <mxCell id="XR_GTFBUSeVbghSvhBvB-14" value="オブジェクトの頂点にアングルを反映" style="rounded=1;whiteSpace=wrap;html=1;fontSize=12;glass=0;strokeWidth=1;shadow=0;" parent="1" vertex="1">
                    <mxGeometry x="440" y="210" width="280" height="40" as="geometry"/>
                </mxCell>
                <mxCell id="XR_GTFBUSeVbghSvhBvB-15" value="" style="rounded=0;html=1;jettySize=auto;orthogonalLoop=1;fontSize=11;endArrow=block;endFill=0;endSize=8;strokeWidth=1;shadow=0;labelBackgroundColor=none;edgeStyle=orthogonalEdgeStyle;" parent="1" target="XR_GTFBUSeVbghSvhBvB-16" edge="1">
                    <mxGeometry relative="1" as="geometry">
                        <mxPoint x="580" y="250" as="sourcePoint"/>
                    </mxGeometry>
                </mxCell>
                <mxCell id="XR_GTFBUSeVbghSvhBvB-16" value="オブジェクトの頂点をキャンバスの真ん中に寄せる" style="rounded=1;whiteSpace=wrap;html=1;fontSize=12;glass=0;strokeWidth=1;shadow=0;" parent="1" vertex="1">
                    <mxGeometry x="440" y="290" width="280" height="40" as="geometry"/>
                </mxCell>
                <mxCell id="XR_GTFBUSeVbghSvhBvB-17" value="&lt;font style=&quot;font-size: 18px;&quot;&gt;ループ処理&lt;/font&gt;" style="text;html=1;align=center;verticalAlign=middle;resizable=0;points=[];autosize=1;strokeColor=none;fillColor=none;" parent="1" vertex="1">
                    <mxGeometry x="525" width="110" height="40" as="geometry"/>
                </mxCell>
                <mxCell id="XR_GTFBUSeVbghSvhBvB-18" value="&lt;font style=&quot;font-size: 12px;&quot;&gt;オブジェクトの位置と頂点が反映されているされてない場合がある&lt;/font&gt;" style="text;html=1;align=center;verticalAlign=middle;resizable=0;points=[];autosize=1;strokeColor=none;fillColor=none;fontSize=18;" parent="1" vertex="1">
                    <mxGeometry x="400" y="350" width="380" height="40" as="geometry"/>
                </mxCell>
            </root>
        </mxGraphModel>
    </diagram>
</mxfile>